<!-- assets/iconos/gear.svg -->
<svg xmlns="http://www.w3.org/2000/svg" viewBox="0 0 512 512" width="32" height="32" fill="#fff">
  <path d="M487.4 315.7l-42.3-24.4c2.7-14.6 4-29.7 4-45s-1.4-30.4-4-45l42.3-24.4c11.3-6.5 15.2-21 8.8-32.3l-43.6-75.5c-6.5-11.3-21-15.2-32.3-8.8l-42.3 24.4c-23.5-19.2-50-34.6-78.5-45.3V24.5C300.4 11 289.4 0 276 0h-88c-13.4 0-24.4 11-24.4 24.5v48.5c-28.5 10.6-55 26-78.5 45.3L42.7 78.6c-11.3-6.5-25.8-2.5-32.3 8.8L-33.2 163c-6.5 11.3-2.5 25.8 8.8 32.3l42.3 24.4C15.4 233.6 14 248.7 14 264s1.4 30.4 4 45L-24.3 333.4c-11.3 6.5-15.2 21-8.8 32.3l43.6 75.5c6.5 11.3 21 15.2 32.3 8.8l42.3-24.4c23.5 19.2 50 34.6 78.5 45.3v48.5c0 13.5 11 24.5 24.4 24.5h88c13.4 0 24.4-11 24.4-24.5v-48.5c28.5-10.6 55-26 78.5-45.3l42.3 24.4c11.3 6.5 25.8 2.5 32.3-8.8l43.6-75.5c6.4-11.3 2.5-25.8-8.9-32.3zM256 336c-39.7 0-72-32.3-72-72s32.3-72 72-72 72 32.3 72 72-32.3 72-72 72z"/>
</svg>
