<!-- assets/iconos/trofeo.svg -->
<svg xmlns="http://www.w3.org/2000/svg" viewBox="0 0 576 512" width="32" height="32" fill="#fff">
  <path d="M552 64h-88V56c0-30.9-25.1-56-56-56H168c-30.9 0-56 25.1-56 56v8H24C10.7 64 0 74.7 0 88v56c0 66.2 49.3 120.8 112 127.7 10.6 36.4 34.4 67.1 66.2 87.6C132.6 373.5 112 413.2 112 456v16c0 22.1 17.9 40 40 40h272c22.1 0 40-17.9 40-40v-16c0-42.8-20.6-82.5-66.2-96.7 31.8-20.5 55.6-51.2 66.2-87.6 62.7-6.9 112-61.5 112-127.7V88c0-13.3-10.7-24-24-24zM96 200c-26.5-7.5-48-35.1-48-56v-32h48v88zm432-56c0 20.9-21.5 48.5-48 56V112h48v32z"/>
</svg>
